<svg width="1200" height="1200" viewBox="0 0 1200 1200" xmlns="http://www.w3.org/2000/svg">
  <defs>
    <filter id="blur1" x="-50%" y="-50%" width="200%" height="200%">
      <feGaussianBlur stdDeviation="60" />
    </filter>
  </defs>

  <circle cx="980" cy="220" r="260" fill="#4F46E5" opacity="0.22" filter="url(#blur1)" />
  <circle cx="1080" cy="780" r="220" fill="#FF6B57" opacity="0.18" filter="url(#blur1)" />
  <circle cx="650" cy="980" r="200" fill="#14B8A6" opacity="0.16" filter="url(#blur1)" />
  <circle cx="700" cy="150" r="150" fill="#F5A623" opacity="0.14" filter="url(#blur1)" />

  <g stroke="#ffffff" stroke-opacity="0.16" stroke-width="1.5">
    <line x1="760" y1="260" x2="920" y2="180" />
    <line x1="760" y1="260" x2="880" y2="420" />
    <line x1="880" y1="420" x2="1040" y2="360" />
    <line x1="880" y1="420" x2="820" y2="600" />
    <line x1="820" y1="600" x2="980" y2="660" />
    <line x1="820" y1="600" x2="680" y2="720" />
    <line x1="680" y1="720" x2="760" y2="880" />
    <line x1="680" y1="720" x2="540" y2="780" />
    <line x1="1040" y1="360" x2="1120" y2="500" />
    <line x1="980" y1="660" x2="1100" y2="740" />
    <line x1="760" y1="880" x2="900" y2="960" />
  </g>

  <g>
    <circle cx="760" cy="260" r="7" fill="#8B5CF6" />
    <circle cx="920" cy="180" r="5" fill="#4F46E5" />
    <circle cx="880" cy="420" r="9" fill="#FF6B57" />
    <circle cx="1040" cy="360" r="5" fill="#F5A623" />
    <circle cx="820" cy="600" r="8" fill="#14B8A6" />
    <circle cx="980" cy="660" r="5" fill="#4F46E5" />
    <circle cx="680" cy="720" r="9" fill="#8B5CF6" />
    <circle cx="1120" cy="500" r="5" fill="#FF6B57" />
    <circle cx="1100" cy="740" r="5" fill="#14B8A6" />
    <circle cx="760" cy="880" r="7" fill="#F5A623" />
    <circle cx="540" cy="780" r="5" fill="#4F46E5" />
    <circle cx="900" cy="960" r="5" fill="#8B5CF6" />
  </g>

  <g opacity="0.9">
    <rect x="60" y="560" width="230" height="150" rx="14" fill="#ffffff" fill-opacity="0.06" stroke="#ffffff" stroke-opacity="0.14" />
    <rect x="86" y="590" width="140" height="10" rx="5" fill="#ffffff" fill-opacity="0.5" />
    <rect x="86" y="614" width="178" height="8" rx="4" fill="#ffffff" fill-opacity="0.22" />
    <rect x="86" y="632" width="120" height="8" rx="4" fill="#ffffff" fill-opacity="0.22" />
    <rect x="86" y="660" width="52" height="18" rx="9" fill="#14B8A6" fill-opacity="0.85" />
  </g>

  <g opacity="0.9">
    <rect x="90" y="330" width="200" height="130" rx="14" fill="#ffffff" fill-opacity="0.05" stroke="#ffffff" stroke-opacity="0.12" />
    <rect x="114" y="356" width="110" height="10" rx="5" fill="#ffffff" fill-opacity="0.45" />
    <rect x="114" y="380" width="150" height="8" rx="4" fill="#ffffff" fill-opacity="0.2" />
    <rect x="114" y="406" width="44" height="16" rx="8" fill="#FF6B57" fill-opacity="0.85" />
    <rect x="164" y="406" width="44" height="16" rx="8" fill="#4F46E5" fill-opacity="0.85" />
  </g>

  <g stroke-linecap="round">
    <path d="M180 900 C 260 840, 320 960, 400 900" stroke="#F5A623" stroke-width="3" fill="none" opacity="0.6" />
  </g>
</svg>
